<!-- Figma: My Damen Library — node 9695:3161 (Bow Wave Orange). SilverBlue #F2F6F8; opacity 0.22 for visibility on #2546b1. -->
<svg
  xmlns="http://www.w3.org/2000/svg"
  width="118"
  height="59"
  viewBox="0 0 118 59.3911"
  fill="none"
  aria-hidden="true"
>
  <path
    opacity="0.22"
    fill-rule="evenodd"
    clip-rule="evenodd"
    d="M19.5044 31.3022L8.39233e-05 16.963L8.39233e-05 0L19.5044 14.3393L39.4963 0L59.0001 14.3393L78.5042 0.000823975L98.0083 14.3393L118 0L118 16.963L98.0083 31.3022L78.5044 16.963L59.0001 31.3022L39.4959 16.963L19.5044 31.3022ZM19.5044 59.3909L8.39233e-05 45.0516V28.0887L19.5044 42.4279L39.4963 28.0887L59.0001 42.4279L78.5042 28.0892L98.0083 42.4279L118 28.0887V45.0516L98.0083 59.3909L78.5041 45.0516L59.0001 59.3909L39.4959 45.0516L19.5044 59.3909Z"
    fill="#F2F6F8"
  />
</svg>
