<svg width="32" height="32" viewBox="0 0 32 32" fill="none" xmlns="http://www.w3.org/2000/svg">
<path d="M12.0007 24H20.0007C20.3784 24 20.6951 23.8722 20.9507 23.6167C21.2062 23.3611 21.334 23.0444 21.334 22.6667C21.334 22.2889 21.2062 21.9722 20.9507 21.7167C20.6951 21.4611 20.3784 21.3333 20.0007 21.3333H12.0007C11.6229 21.3333 11.3062 21.4611 11.0507 21.7167C10.7951 21.9722 10.6673 22.2889 10.6673 22.6667C10.6673 23.0444 10.7951 23.3611 11.0507 23.6167C11.3062 23.8722 11.6229 24 12.0007 24ZM12.0007 18.6667H20.0007C20.3784 18.6667 20.6951 18.5389 20.9507 18.2833C21.2062 18.0278 21.334 17.7111 21.334 17.3333C21.334 16.9556 21.2062 16.6389 20.9507 16.3833C20.6951 16.1278 20.3784 16 20.0007 16H12.0007C11.6229 16 11.3062 16.1278 11.0507 16.3833C10.7951 16.6389 10.6673 16.9556 10.6673 17.3333C10.6673 17.7111 10.7951 18.0278 11.0507 18.2833C11.3062 18.5389 11.6229 18.6667 12.0007 18.6667ZM8.00065 29.3333C7.26732 29.3333 6.63954 29.0722 6.11732 28.55C5.5951 28.0278 5.33398 27.4 5.33398 26.6667V5.33334C5.33398 4.6 5.5951 3.97223 6.11732 3.45001C6.63954 2.92778 7.26732 2.66667 8.00065 2.66667H17.5673C17.9229 2.66667 18.2618 2.73334 18.584 2.86667C18.9062 3.00001 19.1895 3.18889 19.434 3.43334L25.9007 9.9C26.1451 10.1444 26.334 10.4278 26.4673 10.75C26.6007 11.0722 26.6673 11.4111 26.6673 11.7667V26.6667C26.6673 27.4 26.4062 28.0278 25.884 28.55C25.3618 29.0722 24.734 29.3333 24.0007 29.3333H8.00065ZM17.334 10.6667V5.33334H8.00065V26.6667H24.0007V12H18.6673C18.2895 12 17.9729 11.8722 17.7173 11.6167C17.4618 11.3611 17.334 11.0444 17.334 10.6667Z" fill="#808B9B"/>
</svg>
