<svg width="32" height="32" viewBox="0 0 32 32" fill="none" xmlns="http://www.w3.org/2000/svg">
<path d="M7.3 23.951C6.85556 23.7065 6.51111 23.3788 6.26667 22.9676C6.02222 22.5565 5.9 22.0954 5.9 21.5843V15.1843L2.7 13.4176C2.45556 13.2843 2.27778 13.1176 2.16667 12.9176C2.05556 12.7176 2 12.4954 2 12.251C2 12.0065 2.05556 11.7843 2.16667 11.5843C2.27778 11.3843 2.45556 11.2176 2.7 11.0843L13.9667 4.95098C14.1667 4.83987 14.3722 4.75653 14.5833 4.70098C14.7944 4.64542 15.0111 4.61765 15.2333 4.61765C15.4556 4.61765 15.6722 4.64542 15.8833 4.70098C16.0944 4.75653 16.3 4.83987 16.5 4.95098L29.2 11.8843C29.4222 11.9954 29.5944 12.1565 29.7167 12.3676C29.8389 12.5788 29.9 12.8065 29.9 13.051V21.5843C29.9 21.9621 29.7722 22.2788 29.5167 22.5343C29.2611 22.7899 28.9444 22.9176 28.5667 22.9176C28.1889 22.9176 27.8722 22.7899 27.6167 22.5343C27.3611 22.2788 27.2333 21.9621 27.2333 21.5843V13.7176L24.5667 15.1843V21.5843C24.5667 22.0954 24.4444 22.5565 24.2 22.9676C23.9556 23.3788 23.6111 23.7065 23.1667 23.951L16.5 27.551C16.3 27.6621 16.0944 27.7454 15.8833 27.801C15.6722 27.8565 15.4556 27.8843 15.2333 27.8843C15.0111 27.8843 14.7944 27.8565 14.5833 27.801C14.3722 27.7454 14.1667 27.6621 13.9667 27.551L7.3 23.951ZM15.2333 17.1843L24.3667 12.251L15.2333 7.31765L6.1 12.251L15.2333 17.1843ZM15.2333 25.2176L21.9 21.6176V16.5843L16.5333 19.551C16.3333 19.6621 16.1222 19.7454 15.9 19.801C15.6778 19.8565 15.4556 19.8843 15.2333 19.8843C15.0111 19.8843 14.7889 19.8565 14.5667 19.801C14.3444 19.7454 14.1333 19.6621 13.9333 19.551L8.56667 16.5843V21.6176L15.2333 25.2176Z" fill="#808B9B"/>
</svg>
