<svg width="32" height="32" viewBox="0 0 32 32" fill="none" xmlns="http://www.w3.org/2000/svg">
<path d="M27.9993 27.4667C27.8216 27.4667 27.6549 27.4333 27.4993 27.3667C27.3438 27.3 27.1993 27.2 27.066 27.0667L23.9993 24H10.666C9.93268 24 9.3049 23.7389 8.78268 23.2167C8.26046 22.6945 7.99935 22.0667 7.99935 21.3333V20H22.666C23.3993 20 24.0271 19.7389 24.5493 19.2167C25.0716 18.6945 25.3327 18.0667 25.3327 17.3333V8.00001H26.666C27.3993 8.00001 28.0271 8.26112 28.5493 8.78334C29.0716 9.30556 29.3327 9.93334 29.3327 10.6667V26.1C29.3327 26.5 29.1993 26.8278 28.9327 27.0833C28.666 27.3389 28.3549 27.4667 27.9993 27.4667ZM5.33268 16.2333L6.89935 14.6667H19.9993V5.33334H5.33268V16.2333ZM3.99935 20.8C3.64379 20.8 3.33268 20.6722 3.06602 20.4167C2.79935 20.1611 2.66602 19.8333 2.66602 19.4333V5.33334C2.66602 4.60001 2.92713 3.97223 3.44935 3.45001C3.97157 2.92778 4.59935 2.66667 5.33268 2.66667H19.9993C20.7327 2.66667 21.3605 2.92778 21.8827 3.45001C22.4049 3.97223 22.666 4.60001 22.666 5.33334V14.6667C22.666 15.4 22.4049 16.0278 21.8827 16.55C21.3605 17.0722 20.7327 17.3333 19.9993 17.3333H7.99935L4.93268 20.4C4.79935 20.5333 4.6549 20.6333 4.49935 20.7C4.34379 20.7667 4.17713 20.8 3.99935 20.8Z" fill="#808B9B"/>
</svg>
