<svg width="32" height="32" viewBox="0 0 32 32" fill="none" xmlns="http://www.w3.org/2000/svg">
<path d="M13.7172 29.0333C12.995 28.8556 12.1895 28.5556 11.3006 28.1333C10.2561 28.5556 9.26167 28.8445 8.31723 29C7.37278 29.1556 6.37834 29.2556 5.33389 29.3C4.95612 29.3222 4.63945 29.2056 4.38389 28.95C4.12834 28.6945 4.00056 28.3778 4.00056 28C4.00056 27.6222 4.12834 27.3056 4.38389 27.05C4.63945 26.7945 4.95612 26.6556 5.33389 26.6333C5.86723 26.6111 6.36167 26.5778 6.81723 26.5333C7.27278 26.4889 7.72278 26.4167 8.16723 26.3167C8.61167 26.2167 9.06723 26.0889 9.53389 25.9333C10.0006 25.7778 10.5006 25.5889 11.0339 25.3667C11.145 25.3222 11.2561 25.3 11.3672 25.3C11.4783 25.3 11.5895 25.3222 11.7006 25.3667C12.4339 25.7445 13.1061 26.0556 13.7172 26.3C14.3283 26.5445 15.0894 26.6667 16.0006 26.6667C16.9117 26.6667 17.6728 26.5445 18.2839 26.3C18.895 26.0556 19.5672 25.7445 20.3006 25.3667C20.4117 25.3222 20.5228 25.3 20.6339 25.3C20.745 25.3 20.8561 25.3222 20.9672 25.3667C21.5006 25.5889 22.0006 25.7778 22.4672 25.9333C22.9339 26.0889 23.3895 26.2167 23.8339 26.3167C24.2783 26.4167 24.7339 26.4889 25.2006 26.5333C25.6672 26.5778 26.1561 26.6111 26.6672 26.6333C27.045 26.6556 27.3617 26.7945 27.6172 27.05C27.8728 27.3056 28.0006 27.6222 28.0006 28C28.0006 28.3778 27.8728 28.6945 27.6172 28.95C27.3617 29.2056 27.045 29.3222 26.6672 29.3C25.6228 29.2556 24.6283 29.1556 23.6839 29C22.7395 28.8445 21.7561 28.5556 20.7339 28.1333C19.845 28.5556 19.0339 28.8556 18.3006 29.0333C17.5672 29.2111 16.8006 29.3 16.0006 29.3C15.2006 29.3 14.4394 29.2111 13.7172 29.0333ZM16.0006 24C14.6672 24 13.5006 23.5556 12.5006 22.6667L11.0006 21.3333C10.5783 21.7333 10.1283 22.0945 9.65056 22.4167C9.17278 22.7389 8.67834 23.0222 8.16723 23.2667C7.74501 23.4445 7.32834 23.4222 6.91723 23.2C6.50612 22.9778 6.23389 22.6445 6.10056 22.2L3.76723 14.6667C3.65612 14.2889 3.68945 13.9445 3.86723 13.6333C4.04501 13.3222 4.32278 13.1111 4.70056 13L6.66723 12.4667V8.00001C6.66723 7.26667 6.92834 6.63889 7.45056 6.11667C7.97278 5.59445 8.60056 5.33334 9.33389 5.33334H12.6672V4.00001C12.6672 3.62223 12.795 3.30556 13.0506 3.05001C13.3061 2.79445 13.6228 2.66667 14.0006 2.66667H18.0006C18.3783 2.66667 18.695 2.79445 18.9506 3.05001C19.2061 3.30556 19.3339 3.62223 19.3339 4.00001V5.33334H22.6672C23.4006 5.33334 24.0283 5.59445 24.5506 6.11667C25.0728 6.63889 25.3339 7.26667 25.3339 8.00001V12.4667L27.3006 13C27.6783 13.1111 27.9561 13.3222 28.1339 13.6333C28.3117 13.9445 28.345 14.2889 28.2339 14.6667L25.9006 22.2C25.7672 22.6445 25.495 22.9778 25.0839 23.2C24.6728 23.4222 24.2561 23.4445 23.8339 23.2667C23.3006 23.0222 22.795 22.7389 22.3172 22.4167C21.8395 22.0945 21.4006 21.7333 21.0006 21.3333L19.5006 22.6667C18.5006 23.5556 17.3339 24 16.0006 24ZM9.33389 8.00001V11.7667L15.3339 10.1667C15.5561 10.1 15.7783 10.0667 16.0006 10.0667C16.2228 10.0667 16.445 10.1 16.6672 10.1667L22.6672 11.7667V8.00001H9.33389ZM16.0006 12.7667L6.73389 15.2L8.26723 20.1667C8.60056 19.9 8.91723 19.6278 9.21723 19.35C9.51723 19.0722 9.82278 18.7778 10.1339 18.4667C10.4006 18.1778 10.7283 18.0389 11.1172 18.05C11.5061 18.0611 11.8228 18.2222 12.0672 18.5333C12.5783 19.1333 13.1561 19.75 13.8006 20.3833C14.445 21.0167 15.2006 21.3333 16.0672 21.3333C16.9117 21.3333 17.645 21.0111 18.2672 20.3667C18.8895 19.7222 19.4561 19.1111 19.9672 18.5333C20.2117 18.2222 20.5283 18.0611 20.9172 18.05C21.3061 18.0389 21.6339 18.1778 21.9006 18.4667C22.2117 18.7778 22.5172 19.0722 22.8172 19.35C23.1172 19.6278 23.4339 19.9 23.7672 20.1667L25.3006 15.2L16.0006 12.7667Z" fill="#808B9B"/>
</svg>
