<!-- Figma 9695:3149 Cart -->
<svg xmlns="http://www.w3.org/2000/svg" width="24" height="24" viewBox="0 0 24 24" fill="none" aria-hidden="true">
  <path
    d="M5.82812 3.43457C5.98128 3.43457 6.11316 3.54304 6.14258 3.69336L6.44043 5.21777L6.51953 5.62207H20.8672C21.0713 5.62228 21.2231 5.81124 21.1797 6.01074L19.6348 13.1201C19.6027 13.2672 19.4719 13.3721 19.3213 13.3721H8.03613L8.15234 13.9678L8.47363 15.6084L8.55273 16.0127H18.6084C18.8126 16.0128 18.9643 16.2018 18.9209 16.4014L18.8857 16.5635L18.8262 16.8369L19.0283 17.0303C19.3487 17.3382 19.5469 17.7692 19.5469 18.2471C19.5469 19.179 18.7913 19.9346 17.8594 19.9346C16.9274 19.9346 16.1719 19.179 16.1719 18.2471V18.2451C16.1719 18.1415 16.1942 17.9837 16.2402 17.8125C16.2862 17.6415 16.3455 17.494 16.3975 17.4043L16.833 16.6533H10.1357L10.5713 17.4043C10.6232 17.494 10.6825 17.6415 10.7285 17.8125C10.7745 17.9837 10.7969 18.1415 10.7969 18.2451V18.2471C10.7969 19.179 10.0413 19.9346 9.10938 19.9346C8.17743 19.9346 7.42189 19.179 7.42188 18.2471C7.42188 17.7938 7.60082 17.3831 7.89258 17.0791L8.07227 16.8916L8.02246 16.6367L5.64355 4.47949L5.56445 4.0752H2.5V3.43457H5.82812ZM9.10938 16.9268C8.38089 16.9268 7.78906 17.5186 7.78906 18.2471C7.78908 18.9755 8.3809 19.5674 9.10938 19.5674C9.83784 19.5674 10.4297 18.9755 10.4297 18.2471C10.4297 17.5186 9.83786 16.9268 9.10938 16.9268ZM17.8594 16.9268C17.1309 16.9268 16.5391 17.5186 16.5391 18.2471C16.5391 18.9755 17.1309 19.5674 17.8594 19.5674C18.5878 19.5674 19.1797 18.9755 19.1797 18.2471C19.1797 17.5186 18.5878 16.9268 17.8594 16.9268ZM6.76172 6.8584L7.83203 12.3271L7.91113 12.7314H19.0635L19.1494 12.3379L20.3379 6.86914L20.4697 6.2627H6.64551L6.76172 6.8584Z"
    fill="#FFFFFF"
  />
</svg>
