<!-- Figma: My Damen Library — node 9799:2009 (Logo) -->
<svg xmlns="http://www.w3.org/2000/svg" width="85" height="16" viewBox="0 0 85 16" fill="none" aria-hidden="true">
  <path
    d="M5.47559 4.98633C5.50418 4.9793 9.45703 4.01408 9.45703 8C9.45703 8 9.60457 11.0828 6.4707 11.0088V15.9053H6.96777C6.96777 15.9053 14.9326 16.9909 14.9326 7.99121C14.9325 7.94409 14.9084 0 6.96777 0H0V15.9932L5.47559 16V4.98633ZM22.2881 5.99707C22.2865 5.97417 22.2228 4.99832 22.9727 4.99805V0H19.2207C19.1909 0.000968649 17.2848 0.0705563 17.0771 1.99902L14.9326 16H21.9014L22.2881 5.99707ZM29.0908 2.02734C29.0865 2.00032 28.7595 0.000267609 27.1689 0H23.8047V5C23.8047 5 24.4459 4.88883 24.4189 5.93066L24.5391 8.98633L23.0439 9.01465L22.9727 13.002H24.7002L24.7656 16H31.0137L29.0908 2.02734ZM37.8486 8.19531L40.4326 16H42.5V7L39.3984 0H32.1621V16H37.8486V8.19531ZM48.3008 8.19531V16H53.9863V0H46.75L43.6484 7V16H45.7158L48.3008 8.19531ZM67.7705 0H55.1348V4.57129H67.7705V0ZM74.5625 9L78.1084 16V6.00098L75.0449 0H68.9189V16H74.5625V9ZM85 0H79.2568V16H85V0ZM67.7705 10.2783V5.71387L55.1348 5.72168V10.2861L67.7705 10.2783ZM67.7705 11.4287H55.1348V16H67.7705V11.4287Z"
    fill="#2546B1"
  />
</svg>
