<!-- Figma 9695:3119 Logo container -->
<svg xmlns="http://www.w3.org/2000/svg" width="85" height="16" viewBox="0 0 85 16" fill="none" aria-hidden="true">
  <path
    d="M5.47559 11.0137C5.50418 11.0207 9.45703 11.9859 9.45703 8C9.45703 8 9.60457 4.91721 6.4707 4.99121V0.0947266H6.96777C6.96777 0.0947266 14.9326 -0.990918 14.9326 8.00879C14.9325 8.05591 14.9084 16 6.96777 16H0V0.00683594L5.47559 0V11.0137ZM22.2881 10.0029C22.2865 10.0258 22.2228 11.0017 22.9727 11.002V16H19.2207C19.1909 15.999 17.2847 15.9294 17.0771 14.001L14.9326 0H21.9014L22.2881 10.0029ZM29.0908 13.9727C29.0865 13.9997 28.7595 15.9997 27.1689 16H23.8047V11C23.8047 11 24.4459 11.1112 24.4189 10.0693L24.5391 7.01367L23.0439 6.98535L22.9727 2.99805H24.7002L24.7656 0H31.0137L29.0908 13.9727ZM37.8486 7.80469L40.4326 0H42.5V9L39.3984 16H32.1621V0H37.8486V7.80469ZM48.3008 7.80469V0H53.9863V16H46.75L43.6484 9V0H45.7158L48.3008 7.80469ZM67.7705 16H55.1348V11.4287H67.7705V16ZM74.5625 7L78.1084 0V9.99902L75.0449 16H68.9189V0H74.5625V7ZM85 16H79.2568V0H85V16ZM67.7705 5.72168V10.2861L55.1348 10.2783V5.71387L67.7705 5.72168ZM67.7705 4.57129H55.1348V0H67.7705V4.57129Z"
    fill="#2546B1"
  />
</svg>
